{"title":"SHUTTER_ISLAND.(2010).(M.Scorsese).H263.800p[)(]Dts-DD+ 5.1-(En,","uid":8609808,"size":7790013161,"categoryP":"video","categoryS":"hd___movies","magnet":"?xt=urn:btih:cac893cf583a15ebaaa9427c8fe78cb7c883d4a9&amp;dn=SHUTTER_ISLAND.%282010%29.%28M.Scorsese%29.H263.800p%5B%29%28%5DDts-DD%2B+5.1-%28En%2C&amp;tr=udp%3A%2F%2Ftracker.openbittorrent.com%3A80&amp;tr=udp%3A%2F%2Fopen.demonii.com%3A1337&amp;tr=udp%3A%2F%2Ftracker.coppersurfer.tk%3A6969&amp;tr=udp%3A%2F%2Fexodus.desync.com%3A6969","seeders":1,"leechers":0,"uploader":"Tyr3ll","files":-1,"time":1372107748,"description":"Good evening there\n\nHere is our remastered bdrip concerning &quot;Shutter Island&quot; directed by Martin Scorsese with Leonardo DiCaprio and more...\n\nThis is an excellent movie to discover or to discovering as Mystery/Thriller for sure.\n\nSee imdb right here : &lt;a href=&quot;\nhttp://www.imdb.com/title/tt1130884/&quot; rel=&quot;nofollow&quot; target=&quot;_NEW&quot;&gt;\nhttp://www.imdb.com/title/tt1130884/&lt;/a&gt;\n\nVideo :\ncodec used : mkv h.263\n\nscreen resolution : 800p as cropped to 1440 x 460 from 1440 x 810 with full screen ability anyway.\n\nSpoken language : English and French only.\n\nSubtitle : English,French,Dutch,Danish,Finnish,Norwegian,Swedish.\n\nSound :\n\nremoved/downmixed HD MA part of original DTS for simple core DTS 5.1/48 KHz/24 bit/1509 kpps for English language\n\nupmixed ac3 5.1/640 kbps to DD+ aka E-ac3 5.1/48 KHz/32 bit/768 kbps for French language.\n\nSee below for more details :\n\n\n    Complete name : SHUTTER_ISLAND.(2010).(M.Scorsese).H263.800p[)(]Dts-DD+ 5.1-(En,Fr)+Multi.sub.mkv\n\n    Format : Matroska\n    Format version : Version 2\n    File size : 7.26 GiB\n    Duration : 2h 18mn\n    Overall bit rate : 7 522 Kbps\n    Encoded date : UTC 2013-06-20 16:59:31\n    Writing application : Lavf55.8.102\n    Writing library : Lavf55.8.102\n\n  Video #1\n    ID : 1\n    Format : H.263\n    Codec ID : V_MS/VFW/FOURCC / H263\n    Duration : 2h 18mn\n    Bit rate : 5 095 Kbps\n    Width : 1 440 pixels\n    Height : 460 pixels\n    Display aspect ratio : 2.35:1\n    Frame rate mode : Constant\n    Frame rate : 23.976 fps\n    Bit depth : 8 bits\n    Compression mode : Lossy\n    Bits/(Pixel*Frame) : 0.321\n    Stream size : 4.91 GiB (68%)\n    Language : English\n    Default : Yes\n    Forced : No\n\n  Audio #2\n    ID : 2\n    Format : E-AC-3\n    Format/Info : Audio Coding 3\n    Format settings, Endianness : Big\n    Codec ID : A_EAC3\n    Duration : 2h 18mn\n    Bit rate mode : Constant\n    Bit rate : 768 Kbps\n    Channel(s) : 6 channels\n    Channel positions : Front: L C R, Side: L R, LFE\n    Sampling rate : 48.0 KHz\n    Bit depth : 32 bits\n    Compression mode : Lossy\n    Stream size : 758 MiB (10%)\n    Language : French\n    Default : Yes\n    Forced : No\n\n  Audio #3\n    ID : 3\n    Format : DTS\n    Format/Info : Digital Theater Systems\n    Mode : 16\n    Format settings, Endianness : Big\n    Codec ID : A_DTS\n    Duration : 2h 18mn\n    Bit rate mode : Constant\n    Bit rate : 1 509 Kbps\n    Channel(s) : 6 channels\n    Channel positions : Front: L C R, Side: L R, LFE\n    Sampling rate : 48.0 KHz\n    Bit depth : 24 bits\n    Compression mode : Lossy\n    Stream size : 1.46 GiB (20%)\n    Language : English\n    Default : Yes\n    Forced : No\n\n  Text #4\n    ID : 4\n    Format : PGS\n    Codec ID : S_HDMV/PGS\n    Codec ID/Info : The same subtitle format used on BDs/HD-DVDs\n    Language : Danish\n    Default : Yes\n    Forced : No\n  Text #5\n    ID : 5\n    Format : PGS\n    Codec ID : S_HDMV/PGS\n    Codec ID/Info : The same subtitle format used on BDs/HD-DVDs\n    Language : English\n    Default : Yes\n    Forced : No\n  Text #6\n    ID : 6\n    Format : PGS\n    Codec ID : S_HDMV/PGS\n    Codec ID/Info : The same subtitle format used on BDs/HD-DVDs\n    Language : French\n    Default : Yes\n    Forced : No\n  Text #7\n    ID : 7\n    Format : PGS\n    Codec ID : S_HDMV/PGS\n    Codec ID/Info : The same subtitle format used on BDs/HD-DVDs\n    Language : Dutch\n    Default : Yes\n    Forced : No\n  Text #8\n    ID : 8\n    Format : PGS\n    Codec ID : S_HDMV/PGS\n    Codec ID/Info : The same subtitle format used on BDs/HD-DVDs\n    Language : Norwegian\n    Default : Yes\n    Forced : No\n  Text #9\n    ID : 9\n    Format : PGS\n    Codec ID : S_HDMV/PGS\n    Codec ID/Info : The same subtitle format used on BDs/HD-DVDs\n    Language : Finnish\n    Default : Yes\n    Forced : No\n  Text #10\n    ID : 10\n    Format : PGS\n    Codec ID : S_HDMV/PGS\n    Codec ID/Info : The same subtitle format used on BDs/HD-DVDs\n    Language : Swedish\n    Default : Yes\n    Forced : No\n\n  Menu\n    Chapters : 21\n\n_____________________________________________________________\n\nVery acceptable quality,quite well balanced between video and sound but do not expect a perfect quality as well :\n\nNormal quality 14~15/20\n\nFinal size : 7,25 Gb\n\nWe'll give you a few screenshots asap\n\nenjoy and seed,please,thx.\n\nWe wish you have an excellent evening or day end\n\nNote : if you like this movie then buy it if Â§\n\nBest regards","torrent":{"xt":"urn:btih:cac893cf583a15ebaaa9427c8fe78cb7c883d4a9","amp;dn":"SHUTTER_ISLAND.%282010%29.%28M.Scorsese%29.H263.800p%5B%29%28%5DDts-DD%2B+5.1-%28En%2C","amp;tr":["udp%3A%2F%2Ftracker.openbittorrent.com%3A80","udp%3A%2F%2Fopen.demonii.com%3A1337","udp%3A%2F%2Ftracker.coppersurfer.tk%3A6969","udp%3A%2F%2Fexodus.desync.com%3A6969"],"infoHash":"cac893cf583a15ebaaa9427c8fe78cb7c883d4a9","infoHashBuffer":{"type":"Buffer","data":[202,200,147,207,88,58,21,235,170,169,66,124,143,231,140,183,200,131,212,169]},"announce":[],"urlList":[]}}